<svg xmlns="http://www.w3.org/2000/svg" width="109.798" height="30.007" viewBox="0 0 109.798 30.007"><path d="M103.167,120.1a1.669,1.669,0,1,0,1.543,1.665A1.6,1.6,0,0,0,103.167,120.1Zm-5.523,0a1.669,1.669,0,1,0,1.543,1.665A1.6,1.6,0,0,0,97.643,120.1Z" transform="translate(-87.141 -107.509)" fill="#fff"/><path d="M60.279,36.9H40A3.106,3.106,0,0,0,36.9,40V60.279a3.106,3.106,0,0,0,3.1,3.1h17.16l-.8-2.769L58.3,62.4l1.831,1.68,3.269,2.83V40A3.129,3.129,0,0,0,60.279,36.9ZM54.438,56.5s-.545-.651-1-1.211A4.8,4.8,0,0,0,56.178,53.5a8.659,8.659,0,0,1-1.74.893,10.851,10.851,0,0,1-2.194.651,10.6,10.6,0,0,1-3.919-.015,11.52,11.52,0,0,1-2.224-.651,8.867,8.867,0,0,1-1.1-.514c-.045-.03-.091-.045-.136-.076-.03-.015-.045-.03-.061-.03-.272-.151-.424-.257-.424-.257a4.73,4.73,0,0,0,2.648,1.77c-.454.575-1.014,1.241-1.014,1.241a5.5,5.5,0,0,1-4.615-2.285,19.979,19.979,0,0,1,2.179-8.746,7.5,7.5,0,0,1,4.237-1.574l.151.182A9.929,9.929,0,0,0,44,46.055s.333-.182.893-.424a11.856,11.856,0,0,1,3.435-.953,1.491,1.491,0,0,1,.257-.03,12.8,12.8,0,0,1,3.057-.03,12.579,12.579,0,0,1,4.555,1.438,9.937,9.937,0,0,0-3.768-1.907l.212-.242a7.467,7.467,0,0,1,4.237,1.574,19.979,19.979,0,0,1,2.179,8.746,5.546,5.546,0,0,1-4.615,2.27ZM77.287,43.377H72.264v5.644l3.344,3.011V46.554h1.786c1.135,0,1.695.545,1.695,1.422v4.192c0,.878-.53,1.468-1.695,1.468H72.248v3.193h5.024c2.694.015,5.221-1.332,5.221-4.419V47.9C82.508,44.754,79.981,43.377,77.287,43.377Zm26.33,9.034V47.78c0-1.665,3-2.043,3.9-.378l2.769-1.12a4.982,4.982,0,0,0-4.721-3.087c-2.694,0-5.357,1.559-5.357,4.585v4.63c0,3.057,2.663,4.585,5.3,4.585a5.4,5.4,0,0,0,4.842-3.011l-2.966-1.362c-.726,1.861-3.768,1.407-3.768-.212Zm-9.155-3.995c-1.044-.227-1.74-.605-1.786-1.256.061-1.559,2.467-1.619,3.874-.121l2.224-1.71A5.519,5.519,0,0,0,94.19,43.18c-2.467,0-4.857,1.392-4.857,4.025,0,2.557,1.967,3.934,4.131,4.267,1.1.151,2.33.59,2.3,1.347-.091,1.438-3.057,1.362-4.4-.272l-2.149,2.013A5.89,5.89,0,0,0,93.781,57c2.467,0,5.205-1.422,5.311-4.025C99.244,49.687,96.853,48.854,94.462,48.415Zm-10.138,8.4h3.39V43.377h-3.39Zm57.154-13.437h-5.024v5.644l3.344,3.011V46.554h1.786c1.135,0,1.695.545,1.695,1.422v4.192c0,.878-.53,1.468-1.695,1.468h-5.145v3.193h5.039c2.694.015,5.221-1.332,5.221-4.419V47.9C146.7,44.754,144.171,43.377,141.478,43.377Zm-24.65-.182c-2.784,0-5.553,1.513-5.553,4.615V52.4c0,3.072,2.784,4.615,5.584,4.615,2.784,0,5.553-1.543,5.553-4.615V47.81C122.411,44.723,119.612,43.195,116.827,43.195Zm2.179,9.2c0,.968-1.09,1.468-2.164,1.468-1.09,0-2.179-.469-2.179-1.468V47.81c0-.984,1.059-1.513,2.118-1.513,1.1,0,2.224.469,2.224,1.513Zm15.571-4.585c-.076-3.147-2.224-4.419-4.994-4.419h-5.372V56.829h3.435V52.562h.605l3.117,4.267h4.237l-3.662-4.615C133.563,51.7,134.577,50.292,134.577,47.81Zm-4.933,1.816h-2V46.554h2A1.537,1.537,0,1,1,129.644,49.626Z" transform="translate(-36.9 -36.9)" fill="#fff"/></svg>