<svg xmlns="http://www.w3.org/2000/svg" width="97.416" height="30.544" viewBox="0 0 97.416 30.544"><g transform="translate(0.5 0.5)"><text transform="translate(35.916 21.656)" fill="#fff" font-size="19" font-family="Montserrat-ExtraBold, Montserrat" font-weight="800" letter-spacing="-0.01em"><tspan x="0" y="0">E-Mail</tspan></text><path d="M14.772,0A14.772,14.772,0,1,1,0,14.772,14.772,14.772,0,0,1,14.772,0Z" fill="#1b66b3" stroke="#fff" stroke-width="1"/><path d="M12.746,61H1.228A1.23,1.23,0,0,0,0,62.228v8.188a1.23,1.23,0,0,0,1.228,1.228H12.746a1.23,1.23,0,0,0,1.228-1.228V62.228A1.23,1.23,0,0,0,12.746,61Zm-.17.819L7.013,67.382,1.4,61.819ZM.819,70.247V62.394L4.762,66.3Zm.579.579L5.344,66.88l1.383,1.371a.409.409,0,0,0,.578,0L8.652,66.9l3.925,3.925Zm11.758-.579L9.231,66.322,13.156,62.4Z" transform="translate(7.604 -51.373)" fill="#fff"/></g></svg>