<svg xmlns="http://www.w3.org/2000/svg" width="27.791" height="22.341" viewBox="0 0 27.791 22.341"><g transform="translate(0.5 0.5)"><path d="M874.76,408.177h25.217a.786.786,0,0,1,.787.786v16.15a.786.786,0,0,1-.787.786h-5.818a.146.146,0,0,0-.145.146V429.3a.212.212,0,0,1-.315.185L887.484,426a.784.784,0,0,0-.384-.1H874.76a.785.785,0,0,1-.787-.786v-16.15A.786.786,0,0,1,874.76,408.177Z" transform="translate(-873.973 -408.177)" fill="none" stroke="#fff" stroke-miterlimit="10" stroke-width="1"/><ellipse cx="1.437" cy="1.437" rx="1.437" ry="1.437" transform="translate(17.826 10.718)" fill="#fff"/><ellipse cx="1.437" cy="1.437" rx="1.437" ry="1.437" transform="translate(12.861 10.718)" fill="#fff"/><ellipse cx="1.437" cy="1.437" rx="1.437" ry="1.437" transform="translate(7.982 10.718)" fill="#fff"/></g></svg>