<svg xmlns="http://www.w3.org/2000/svg" xmlns:xlink="http://www.w3.org/1999/xlink" width="130.416" height="30.544" viewBox="0 0 130.416 30.544"><defs><linearGradient id="a" x1="0.66" y1="0.437" x2="0.851" y2="0.802" gradientUnits="objectBoundingBox"><stop offset="0" stop-color="#eff7fc"/><stop offset="1" stop-color="#fff"/></linearGradient></defs><g transform="translate(0.5 0.5)"><path d="M55.052,80.846l5.8,4.287c.662.365,1.14.176,1.3-.615l2.362-11.13c.242-.969-.37-1.409-1-1.122L49.65,77.615c-.947.38-.941.908-.173,1.143l3.559,1.111,8.24-5.2c.389-.236.746-.109.453.151" transform="translate(-42.851 -63.064)" fill="url(#a)"/><path d="M14.772,0A14.772,14.772,0,1,1,0,14.772,14.772,14.772,0,0,1,14.772,0Z" fill="none" stroke="#fff" stroke-width="1"/><path d="M83.92,91.4c-.466,0-.387-.176-.548-.62L82,86.264,92.559,80" transform="translate(-71.962 -69.945)" fill="#c8daea"/><text transform="translate(35.916 20.848)" fill="#fff" font-size="19" font-family="Montserrat-ExtraBold, Montserrat" font-weight="800" letter-spacing="-0.01em"><tspan x="0" y="0">Telegram</tspan></text></g></svg>