<svg xmlns="http://www.w3.org/2000/svg" width="23.008" height="23.033" viewBox="0 0 23.008 23.033"><path d="M68.494,91.354l1.611-5.723a11.484,11.484,0,1,1,4.29,4.2Zm6.2-3.609.352.215a9.538,9.538,0,1,0-3.07-3l.237.369-.928,3.3Z" transform="translate(-68.494 -68.321)" fill="#fff"/><path d="M150.179,152.867l-.745-.041a.9.9,0,0,0-.641.219,3.4,3.4,0,0,0-1.117,1.711,5.187,5.187,0,0,0,1.2,4.066,12.1,12.1,0,0,0,6.52,4.74,3.178,3.178,0,0,0,2.691-.333,2.407,2.407,0,0,0,1.047-1.528l.119-.556a.386.386,0,0,0-.216-.432l-2.52-1.161a.386.386,0,0,0-.468.115l-.989,1.282a.283.283,0,0,1-.318.095,7.746,7.746,0,0,1-4.191-3.587.286.286,0,0,1,.036-.319l.945-1.094a.386.386,0,0,0,.063-.4l-1.086-2.541A.386.386,0,0,0,150.179,152.867Z" transform="translate(-141.888 -146.725)" fill="#fff"/></svg>