<svg xmlns="http://www.w3.org/2000/svg" xmlns:xlink="http://www.w3.org/1999/xlink" width="133.69" height="30.334" viewBox="0 0 133.69 30.334"><defs><filter id="a" x="34.079" y="6.379" width="99.611" height="23.916" filterUnits="userSpaceOnUse"><feOffset dy="1" input="SourceAlpha"/><feGaussianBlur stdDeviation="1" result="b"/><feFlood flood-opacity="0.078"/><feComposite operator="in" in2="b"/><feComposite in="SourceGraphic"/></filter><linearGradient id="c" x1="0.5" y1="1" x2="0.5" gradientUnits="objectBoundingBox"><stop offset="0" stop-color="#f9f9f9"/><stop offset="1" stop-color="#fff"/></linearGradient></defs><g transform="matrix(1, 0, 0, 1, 0, 0)" filter="url(#a)"><path d="M83.085,17.916V3.943h2.7V5.265h.039a3.128,3.128,0,0,1,1.321-1.221,4.047,4.047,0,0,1,1.76-.38,4.476,4.476,0,0,1,2.1.46,4.329,4.329,0,0,1,1.46,1.221,5.161,5.161,0,0,1,.861,1.771,7.85,7.85,0,0,1,.28,2.112,7.093,7.093,0,0,1-.28,2,5.083,5.083,0,0,1-.851,1.7,4.206,4.206,0,0,1-1.42,1.182,4.288,4.288,0,0,1-1.991.441,4.026,4.026,0,0,1-1.771-.391,3.343,3.343,0,0,1-1.331-1.15h-.04v4.9ZM87.117,6.1a2.334,2.334,0,0,0-.76.749,3.137,3.137,0,0,0-.41,1.062,6.347,6.347,0,0,0-.12,1.241,5.756,5.756,0,0,0,.13,1.22,3.181,3.181,0,0,0,.42,1.051,2.241,2.241,0,0,0,.771.731,2.294,2.294,0,0,0,3.092-.731,3,3,0,0,0,.41-1.051,6.213,6.213,0,0,0,.12-1.22,5.7,5.7,0,0,0-.13-1.222,3.23,3.23,0,0,0-.431-1.071,2.383,2.383,0,0,0-.771-.76,2.149,2.149,0,0,0-1.15-.291A2.188,2.188,0,0,0,87.117,6.1ZM71.758,17.916V3.943h2.7V5.265H74.5a3.117,3.117,0,0,1,1.321-1.221,4.044,4.044,0,0,1,1.761-.38,4.47,4.47,0,0,1,2.1.46,4.329,4.329,0,0,1,1.461,1.221A5.188,5.188,0,0,1,82,7.116a7.936,7.936,0,0,1,.28,2.112,7.171,7.171,0,0,1-.28,2,5.115,5.115,0,0,1-.851,1.7,4.209,4.209,0,0,1-1.421,1.182,4.282,4.282,0,0,1-1.991.441,4.019,4.019,0,0,1-1.77-.391,3.338,3.338,0,0,1-1.332-1.15H74.6v4.9ZM75.792,6.1a2.316,2.316,0,0,0-.761.749,3.139,3.139,0,0,0-.411,1.062A6.308,6.308,0,0,0,74.5,9.149a5.72,5.72,0,0,0,.13,1.22,3.153,3.153,0,0,0,.42,1.051,2.235,2.235,0,0,0,.771.731,2.294,2.294,0,0,0,3.091-.731,3.037,3.037,0,0,0,.411-1.051,6.241,6.241,0,0,0,.118-1.22,5.717,5.717,0,0,0-.129-1.222,3.27,3.27,0,0,0-.43-1.071,2.379,2.379,0,0,0-.77-.76,2.151,2.151,0,0,0-1.15-.291A2.186,2.186,0,0,0,75.792,6.1ZM50.908,14.373a4.666,4.666,0,0,1-1.532-.6,3.417,3.417,0,0,1-1.1-1.111,3.478,3.478,0,0,1-.471-1.732h2.7a1.566,1.566,0,0,0,.191.791,1.654,1.654,0,0,0,.491.541,2.1,2.1,0,0,0,.691.31,3.241,3.241,0,0,0,.81.1,3.021,3.021,0,0,0,.631-.071,2.123,2.123,0,0,0,.6-.22,1.356,1.356,0,0,0,.45-.4,1.046,1.046,0,0,0,.18-.63q0-.641-.851-.961a16.851,16.851,0,0,0-2.372-.641c-.413-.094-.816-.2-1.21-.331a4.14,4.14,0,0,1-1.051-.5,2.418,2.418,0,0,1-.739-.78,2.211,2.211,0,0,1-.281-1.151,3.112,3.112,0,0,1,.391-1.641,2.875,2.875,0,0,1,1.031-1.011,4.532,4.532,0,0,1,1.441-.521,8.957,8.957,0,0,1,1.641-.149,8.161,8.161,0,0,1,1.63.16,4.3,4.3,0,0,1,1.411.54,3.237,3.237,0,0,1,1.03,1.01,3.4,3.4,0,0,1,.49,1.592h-2.7a1.244,1.244,0,0,0-.619-1.111,2.84,2.84,0,0,0-1.322-.29,5.009,5.009,0,0,0-.52.029,1.773,1.773,0,0,0-.51.13,1.07,1.07,0,0,0-.391.291.764.764,0,0,0-.159.51.775.775,0,0,0,.28.62,2.145,2.145,0,0,0,.729.391,9.368,9.368,0,0,0,1.032.27q.58.121,1.18.261a12.371,12.371,0,0,1,1.211.339,4.035,4.035,0,0,1,1.05.531,2.571,2.571,0,0,1,.74.821,2.407,2.407,0,0,1,.28,1.21,3.311,3.311,0,0,1-.409,1.712,3.278,3.278,0,0,1-1.071,1.111,4.384,4.384,0,0,1-1.511.592,8.877,8.877,0,0,1-1.732.17A8.573,8.573,0,0,1,50.908,14.373Zm-18.431,0a3.169,3.169,0,0,1-1.12-.561,2.6,2.6,0,0,1-.751-.961,3.245,3.245,0,0,1-.27-1.38,3.025,3.025,0,0,1,.31-1.451,2.61,2.61,0,0,1,.8-.912,3.6,3.6,0,0,1,1.121-.51,11.993,11.993,0,0,1,1.27-.27q.64-.1,1.26-.161a7.347,7.347,0,0,0,1.1-.18,1.9,1.9,0,0,0,.761-.35.77.77,0,0,0,.26-.67,1.509,1.509,0,0,0-.15-.73,1.1,1.1,0,0,0-.4-.421,1.574,1.574,0,0,0-.58-.2,4.783,4.783,0,0,0-.71-.05,2.154,2.154,0,0,0-1.321.36,1.608,1.608,0,0,0-.561,1.2H30.656a3.293,3.293,0,0,1,.5-1.662A3.393,3.393,0,0,1,32.277,4.4a4.888,4.888,0,0,1,1.532-.57,8.674,8.674,0,0,1,1.71-.17,11.581,11.581,0,0,1,1.58.11,4.839,4.839,0,0,1,1.462.43,2.874,2.874,0,0,1,1.08.891,2.481,2.481,0,0,1,.42,1.511V11.99a10.667,10.667,0,0,0,.081,1.341,2.407,2.407,0,0,0,.28.961H37.54a4.087,4.087,0,0,1-.131-.49,4.291,4.291,0,0,1-.069-.511,3.709,3.709,0,0,1-1.6.982,6.442,6.442,0,0,1-1.88.28A5.088,5.088,0,0,1,32.477,14.373Zm4.293-4.9a4.635,4.635,0,0,1-.581.151c-.206.039-.423.074-.651.1s-.454.061-.68.1a5.092,5.092,0,0,0-.631.16,1.87,1.87,0,0,0-.54.271,1.3,1.3,0,0,0-.371.43,1.391,1.391,0,0,0-.14.661,1.339,1.339,0,0,0,.14.64,1.075,1.075,0,0,0,.381.41,1.594,1.594,0,0,0,.56.21,3.5,3.5,0,0,0,.66.061,2.5,2.5,0,0,0,1.3-.281,1.877,1.877,0,0,0,.681-.671,2.138,2.138,0,0,0,.27-.791,5.3,5.3,0,0,0,.05-.641V9.228A1.267,1.267,0,0,1,36.77,9.478ZM44.534,14.3a2.947,2.947,0,0,1-1.041-.35,1.859,1.859,0,0,1-.71-.741,2.649,2.649,0,0,1-.26-1.261V5.844H40.8v-1.9h1.72V.841h2.842v3.1h2.081v1.9H45.365v5.125a1.4,1.4,0,0,0,.239.961,1.394,1.394,0,0,0,.961.241q.24,0,.46-.021a3.6,3.6,0,0,0,.421-.06v2.2a6.633,6.633,0,0,1-.8.081c-.294.012-.58.019-.861.019A8.316,8.316,0,0,1,44.534,14.3Zm23.522-.01-1.08-3.183H61.633l-1.12,3.183H57.351L62.753,0h3.223l5.342,14.292Zm-5.6-5.524h3.7l-1.8-5.245h-.04Zm-36.18,5.524V8.447a3.624,3.624,0,0,0-.4-1.911A1.55,1.55,0,0,0,24.453,5.9a1.969,1.969,0,0,0-1.681.69,3.84,3.84,0,0,0-.521,2.272v5.425H19.41V0h2.842V5.385h.06a3.282,3.282,0,0,1,1.38-1.311,3.722,3.722,0,0,1,1.642-.41,4.855,4.855,0,0,1,1.871.309,2.78,2.78,0,0,1,1.15.861,3.34,3.34,0,0,1,.591,1.341,8.385,8.385,0,0,1,.17,1.752v6.365Zm-14.468,0L9.385,4.564h-.04L6.964,14.292H3.782L0,0H3.141L5.4,9.728h.04L7.924,0h2.942l2.441,9.848h.039L15.689,0H18.77L14.928,14.292Z" transform="translate(37.08 8.38)" fill="#fff"/></g><image width="30" height="30" opacity="0.01" xlink:href="%D0%9A%D0%BE%D0%BC%D0%BF%D0%BE%D0%BD%D0%B5%D0%BD%D1%82%209%20-%201-image.png" style="mix-blend-mode:multiply;isolation:isolate"/><path d="M213.8,462.59l2.08-7.6a14.664,14.664,0,1,1,12.706,7.342h-.006a14.653,14.653,0,0,1-7.007-1.784Zm8.133-4.692.445.264a12.172,12.172,0,0,0,6.2,1.7h0a12.186,12.186,0,1,0-10.324-5.71l.29.461-1.232,4.5Z" transform="translate(-212.955 -432.256)" fill="url(#c)"/><path d="M266.787,486.553c-.275-.61-.564-.622-.825-.633-.214-.009-.458-.009-.7-.009a1.346,1.346,0,0,0-.977.458A4.107,4.107,0,0,0,263,489.426a7.126,7.126,0,0,0,1.5,3.789c.183.244,2.535,4.062,6.259,5.53,3.095,1.22,3.725.978,4.4.917a3.7,3.7,0,0,0,2.473-1.742,3.061,3.061,0,0,0,.214-1.742c-.092-.153-.336-.244-.7-.427s-2.168-1.07-2.5-1.192-.58-.183-.824.184-.946,1.191-1.16,1.436-.427.275-.794.092a10.016,10.016,0,0,1-2.946-1.818,11.029,11.029,0,0,1-2.038-2.537c-.214-.366-.023-.565.161-.748.164-.164.366-.428.55-.642a2.513,2.513,0,0,0,.366-.611.674.674,0,0,0-.031-.642C267.825,489.09,267.113,487.278,266.787,486.553Z" transform="translate(-254.817 -477.27)" fill="#fff" fill-rule="evenodd"/></svg>