<svg xmlns="http://www.w3.org/2000/svg" width="60.325" height="83.444" viewBox="0 0 60.325 83.444"><path d="M495.3,142.593s2.2-4.928,5.264-4.79v7.025l-3.952.72Z" transform="translate(-480.404 -125.437)" fill="#ffb2a3"/><path d="M457.069,157.41c-.277.71-.507,1.407-.788,2.124-2.615,6.676-5.319,13.579-7.1,19.955l-.354,1.271a.647.647,0,0,0,.809.8c1.609-.462,4.442-1.268,5.005-1.389l1.551,9.079c-12.61,2.813-18.424,4.416-16.788-1.833,3.174-12.146,8.811-20.987,13.378-29.306.417-.76.863-1.529,1.253-2.244A4.353,4.353,0,0,0,457.069,157.41Z" transform="translate(-439.138 -138.711)" fill="#ffb2a3"/><path d="M565.812,100.343a12.337,12.337,0,0,0,.8,3.4c.472.873,1.291,1.5,1.831,2.33a2.192,2.192,0,0,1-.055,2.766c-.364.319-.865.436-1.228.754-1.021.9-.337,2.5-.19,3.829a4.406,4.406,0,0,1-1.781,3.958c-.887.637-2.1,1.052-2.415,2.1-.244.824.2,1.784-.262,2.514-.676,1.072-2.4.475-3.461,1.154-.749.479-.976,1.449-1.4,2.234a4.418,4.418,0,0,1-4.083,2.291,7.963,7.963,0,0,0-2.581-.178c-1.1.286-1.892,1.438-3.014,1.55-2.332.228-2.432-2.544-3.732-4.209-1.634-2.1-5.385-2.424-5.844-5.078-.108-.622-.012-1.335-.4-1.82s-1.152-.548-1.6-.994c-.842-.836-.181-2.409-.432-3.528a7.661,7.661,0,0,0-.375-.736c-3.019-6.376-2.547-13.357,1.762-17.191,3.57-3.177,8.921-3.428,14-1.215.054-.036.089-.081.145-.116a5.548,5.548,0,0,1,4.274-.554c2.717.584,3.177,3.232,5.368,4.046.839.31,1.81-.116,2.684.084A3.119,3.119,0,0,1,565.812,100.343Z" transform="translate(-508.583 -92.389)" fill="#000543"/><path d="M529.86,110.416c1.511-.581,4.273-.782,5.455-1.3a10.152,10.152,0,0,0,2.287-1.272,4.171,4.171,0,0,0,1.207-1.637c-.005.011-.255-1.111-.034-.278a7.085,7.085,0,0,1,.405-5.092,6.441,6.441,0,0,0-.759-3.339c-1.549-3.079-2.878-3.146-4.183-4.146a10.442,10.442,0,0,0-3.034-1.625,6.106,6.106,0,0,0-4.964.01,11.517,11.517,0,0,0-1.256.748c-.366.292-.706.617-1.055.931-.475.116-2.256.667-2.77,1.745-1.009,2.12-.625,3.256-.625,3.256,1.171.151,2.637-1.058,3.541-.578a3.229,3.229,0,0,1,.767.606c1.1,1.236,2.015,2.246,1.987,4.03-.023,1.463-.99,2.973-.3,4.3.616,1.186,2.289,1.61,3,2.749A2.6,2.6,0,0,1,529.86,110.416Z" transform="translate(-498.887 -91.204)" fill="#000543"/><path d="M477.107,314.048c.013,0,.026,0,.038,0,.1-.012.249-.049.211-.133a4.009,4.009,0,0,0-.919-1.361c-.261-.246-.105-.664.268-.587a6.808,6.808,0,0,1,2.3.938,13.473,13.473,0,0,1,2.664,2.193c1.215,1.093.511,1.887-.338,2.51-1.637,1.2-5.954,1.835-7.729.821a6.332,6.332,0,0,1-2.3-3.1,2.117,2.117,0,0,1,.15-1.192,1.577,1.577,0,0,1,1.863-.993Z" transform="translate(-462.743 -253.391)" fill="#ffb2a3"/><path d="M499.895,240.3l-11.4,2.7a2.188,2.188,0,0,1-2.83-2.3l.389-9.418c.062-1.49.68-1.874,2.15-2.218,5.38-1.257,16.784-5.013,16.784-5.013l1.006,7.826C506.457,235.5,503.619,239.423,499.895,240.3Z" transform="translate(-473.318 -188.813)" fill="#f2f2f2"/><path d="M523.237,263.412c-.048,2.2-.132,4.077-.239,5.7h32.109c-2.555-3.584-5.035-6.962-5.245-13.12-.218-6.407,1.436-9.174,2.039-14.926,0,0,2.14-11.8-5.851-16.958l-1.7-1.095c-4.92-3.024-11.96-5.684-18.715.6a13.249,13.249,0,0,0-3.831,6.592c-.274,1.125-.5,2.254-.7,3.217a.2.2,0,0,0-.012.05,9.771,9.771,0,0,0-.167,1.094q-.034.384-.047.77l.031.024C520.8,242.118,523.52,250.41,523.237,263.412Z" transform="translate(-499.196 -185.667)" fill="#f2f2f2"/><path d="M555.816,222.954a6.756,6.756,0,0,1,4.777,1.4,1.831,1.831,0,0,1-.047,2.924q-2.291,2.061-4.514,4.181a1.756,1.756,0,0,1-2.743-.2,40.339,40.339,0,0,1-2.23-4.819C550.291,224.549,553.8,223.18,555.816,222.954Z" transform="translate(-521.286 -187.971)" fill="#ffb2a3"/><path d="M522.918,118.555c1.56-1.179,4.695-2.335,5.894-3.333a12.3,12.3,0,0,0,2.231-2.239,5.048,5.048,0,0,0,.859-2.3c0,.014-.662-1.2-.131-.311a8.541,8.541,0,0,1-1.212-6.038,7.742,7.742,0,0,0-1.983-3.616c-2.812-3.051-4.375-2.685-6.218-3.408-1.809-.71-1.725-.515-4.053-.87a8.523,8.523,0,0,0-4.844.83,4.614,4.614,0,0,0-1.836,1.7c-.1.156-.2.307-.28.426q-.076.107-.15.216a8.99,8.99,0,0,1-1.807,1.94,4.534,4.534,0,0,0-1.592,2.225,8.436,8.436,0,0,0,.351,5.586c1.407-.216,2.707-3.71,3.914-3.456a3.87,3.87,0,0,1,1.09.446c1.686,1.064,3.079,1.93,3.635,4.007.456,1.7-.166,3.778,1.071,5.085,1.1,1.169,3.185,1.1,4.386,2.184A3.116,3.116,0,0,1,522.918,118.555Z" transform="translate(-489.366 -94.996)" fill="#000543"/><path d="M512.784,118.629a8.114,8.114,0,0,0-2.993,6.424l.133,6.553a8.122,8.122,0,1,0,16.241-.335l-.129-6.337Z" transform="translate(-491.045 -111.353)" fill="#ffb2a3"/><path d="M555.141,185.134l-4.463,1.523a1.389,1.389,0,0,1-1.605-1.071l-5.049-14.975a1.4,1.4,0,0,1,.627-1.832l4.463-1.523a1.389,1.389,0,0,1,1.605,1.071l5.049,14.975A1.4,1.4,0,0,1,555.141,185.134Z" transform="translate(-516.122 -147.043)" fill="#ffb2a3"/><path d="M537.185,139.565l1.975-.031a.528.528,0,0,1,.016,1.055l-1.975.031a.528.528,0,0,1-.017-1.055Z" transform="translate(-510.793 -126.711)" fill="#000543"/><path d="M509.64,140.012l1.534-.024a.546.546,0,0,1,.016,1.055l-1.533.024a.546.546,0,0,1-.016-1.055Z" transform="translate(-490.642 -127.045)" fill="#000543"/><path d="M521.716,163.3l.062-.177a1.016,1.016,0,0,0,.653.869l.886.274a.636.636,0,0,0,.738-.338l.02.1c.119.6-.35,1.136-.86.977l-.887-.275A1.11,1.11,0,0,1,521.716,163.3Z" transform="translate(-499.758 -144.039)" fill="#fa694f"/><path d="M539.94,149.805c.008.5.278.909.6.9s.584-.418.576-.922-.278-.909-.6-.9S539.932,149.3,539.94,149.805Z" transform="translate(-513.197 -133.58)" fill="#000543"/><path d="M513.209,150.226c.008.5.278.909.6.9s.583-.418.576-.922-.278-.909-.6-.9S513.2,149.722,513.209,150.226Z" transform="translate(-493.558 -133.889)" fill="#000543"/><path d="M531.079,175.719c-.062.558-.115,1.115-1.32,1.3,0,0-2.013.322-1.842-1Z" transform="translate(-504.356 -153.297)" fill="#fff"/><ellipse cx="2.983" cy="4.254" rx="2.983" ry="4.254" transform="translate(33.604 13.376)" fill="#fff"/><ellipse cx="2.983" cy="4.254" rx="2.983" ry="4.254" transform="translate(34.812 13.376)" fill="#91b4de"/><path d="M545.377,109.835a.266.266,0,0,1-.265-.253c-.187-4.022-1.468-7.132-3.805-9.244a12.943,12.943,0,0,0-8.486-2.994.265.265,0,0,1-.029-.53,13.249,13.249,0,0,1,8.867,3.126c2.449,2.211,3.79,5.446,3.984,9.617a.265.265,0,0,1-.253.278Z" transform="translate(-507.761 -95.32)" fill="#91b4de"/><path d="M548.678,174.153a.133.133,0,0,1,0-.265c7.218-.25,8.144-5.287,8.152-5.338a.133.133,0,1,1,.262.044c-.009.053-.973,5.3-8.4,5.559Z" transform="translate(-519.519 -147.948)" fill="#91b4de"/><rect width="1.312" height="0.754" rx="0.377" transform="translate(28.495 25.713)" fill="#d7e1fc"/><path d="M502.878,314.579c.671.21,1.793.547,2.471.76a173.445,173.445,0,0,0,18.944,5.2l1.217.231a.812.812,0,0,0,.88-.911c-.278-1.6-.762-4.412-.818-4.976l9.149-2.527c1.384,12.609,1.876,17.826-4.121,16.8-11.658-1.99-19.328-6.278-27.047-10.09-.7-.348-1.416-.725-2.08-1.05C502.511,317.032,502.45,316.171,502.878,314.579Z" transform="translate(-484.936 -253.68)" fill="#ffb2a3"/><path d="M593.747,259.325l1.407,11.383a2.789,2.789,0,0,1-2.584,3.133l-9.269.576c-1.467.091-1.778-.5-1.955-1.969-.647-5.373-3.1-16.651-3.1-16.651l7.85-1.839A6.276,6.276,0,0,1,593.747,259.325Z" transform="translate(-541.343 -210.656)" fill="#f2f2f2"/></svg>