<svg xmlns="http://www.w3.org/2000/svg" width="23.333" height="23.394" viewBox="0 0 23.333 23.394"><g transform="translate(-541.108 -724.435)"><path d="M223.409,507.752a17.871,17.871,0,0,0-4.629-3.506c-.889-.469-1.309-.362-1.877.472-.186.272-.363.549-.541.827-.193.3-.388.606-.593.9a7.261,7.261,0,0,1-.763.957.784.784,0,0,1-1.056.148c-.164-.072-.328-.144-.49-.228a15.727,15.727,0,0,1-3.95-2.95,15.094,15.094,0,0,1-3.334-4.652.737.737,0,0,1,.1-.821,3.8,3.8,0,0,1,1.044-.885l.634-.41c.4-.257.8-.515,1.194-.788a1.139,1.139,0,0,0,.436-1.733,15.46,15.46,0,0,0-1.7-2.655,12.984,12.984,0,0,0-2.213-2.348,1.3,1.3,0,0,0-1.467-.151,7.5,7.5,0,0,0-3.027,2.615,2.908,2.908,0,0,0-.532,1.807,14.031,14.031,0,0,0,.783,4.008,21.083,21.083,0,0,0,3.8,6.569,24.109,24.109,0,0,0,9.359,7.127,13.82,13.82,0,0,0,4.867,1.1,1.747,1.747,0,0,0,.237.015,2.68,2.68,0,0,0,1.391-.449,7.91,7.91,0,0,0,2.6-2.782A1.668,1.668,0,0,0,223.409,507.752Z" transform="translate(340.467 234.661)" fill="#0087ef"/></g></svg>